<?xml version="1.0" encoding="UTF-8" standalone="no"?>
<!-- Created with Inkscape (http://www.inkscape.org/) -->

<svg
   width="300"
   height="300"
   viewBox="0 0 79.374999 79.375"
   version="1.1"
   id="svg5"
   inkscape:version="1.1 (1:1.1+202105261517+ce6663b3b7)"
   sodipodi:docname="home.svg"
   xmlns:inkscape="http://www.inkscape.org/namespaces/inkscape"
   xmlns:sodipodi="http://sodipodi.sourceforge.net/DTD/sodipodi-0.dtd"
   xmlns="http://www.w3.org/2000/svg"
   xmlns:svg="http://www.w3.org/2000/svg">
  <sodipodi:namedview
     id="namedview7"
     pagecolor="#505050"
     bordercolor="#eeeeee"
     borderopacity="1"
     inkscape:pageshadow="0"
     inkscape:pageopacity="0"
     inkscape:pagecheckerboard="0"
     inkscape:document-units="px"
     showgrid="false"
     inkscape:zoom="0.70703126"
     inkscape:cx="79.911601"
     inkscape:cy="218.51933"
     inkscape:window-width="1366"
     inkscape:window-height="715"
     inkscape:window-x="0"
     inkscape:window-y="25"
     inkscape:window-maximized="1"
     inkscape:current-layer="layer1"
     inkscape:snap-global="false"
     fit-margin-top="0"
     fit-margin-left="0"
     fit-margin-right="0"
     fit-margin-bottom="0" />
  <defs
     id="defs2">
    <symbol
       id="ToiletsMen">
      <title
         id="title8479">Toilets - Men</title>
      <g
         style="stroke:none"
         id="g8485">
        <circle
           cx="36"
           cy="9"
           r="5"
           id="circle8481" />
        <path
           d="m 24,22 v 15.5 a 2.25,2.25 0 0 0 4.5,0 V 23 h 1 v 39.5 a 3,3 0 0 0 6,0 V 40 h 1 v 22.5 a 3,3 0 0 0 6,0 V 23 h 1 v 14.5 a 2.25,2.25 0 0 0 4.5,0 V 22 A 7,7 0 0 0 41,15 H 31 a 7,7 0 0 0 -7,7 z"
           id="path8483" />
      </g>
    </symbol>
    <symbol
       id="Shops">
      <title
         id="title9001">Shops</title>
      <g
         style="stroke:none"
         id="g9009">
        <!-- Pipe -->
        <path
           d="m 19.5,11 v 5 c 0,1.1 1,1.5 2,1 l 13.9,-6.4 c 0.4,-0.2 0.9,0 1.1,0.4 l 1.1,2.3 c 0.2,0.4 0,0.9 -0.4,1.1 L 18,23.1 c -3.5,1.6 -7,-0.6 -7,-3.6 V 11 Z"
           id="path9003" />
        <!-- Book -->
        <path
           d="M 27.5,22 14,28 c -2.2,1 -3,2.4 -3,4.5 v 21 A 5.5,5.5 0 0 0 16.5,59 H 35 v -3.5 a 2,2 0 0 1 0,-4 V 26 h -7.5 z m 0.5,8 h 3 V 48 H 20 l 8,-3.5 z M 16.5,52 h 13 a 2,2 0 0 0 0,3 h -13 a 1.5,1.5 0 0 1 0,-3 z"
           id="path9005" />
        <!-- Present -->
        <path
           d="M 49,10.5 45,11.8 46.9,18 42.6,14.6 40,18 45,22 H 40 V 59 H 62 V 22 H 57 L 62,18 59.4,14.6 55.1,18 57,11.8 53,10.5 51,17 Z M 44,26 h 5 v 6 h -5 z m 9,0 h 5 v 6 h -5 z m -9,10 h 5 v 19 h -5 z m 9,0 h 5 v 19 h -5 z"
           id="path9007" />
      </g>
    </symbol>
  </defs>
  <g
     inkscape:label="Layer 1"
     inkscape:groupmode="layer"
     id="layer1"
     transform="translate(543.52417,591.03002)">
    <g
       id="g14879"
       transform="matrix(0.41920068,0,0,0.41920068,-328.54083,-376.21183)">
      <path
         id="rect6478"
         style="fill:#ffffff;stroke-width:0.323723;stroke-linecap:round;stroke-linejoin:round;paint-order:stroke fill markers"
         d="m -418.16723,-455.35574 -60.06611,59.92813 h 24.86824 v 35.67586 c 10.6629,5.96323 22.76401,9.17723 35.19787,9.17723 12.43406,0 24.53537,-3.21432 35.19836,-9.17774 v -35.67535 h 24.86774 z m 0,58.938 c 0.6609,0 1.32051,0.0584 1.97146,0.17262 0.21778,0.0504 0.43408,0.10694 0.64852,0.17002 0.42765,0.0888 0.84982,0.20206 1.26452,0.33898 0.24347,0.10113 0.48395,0.21048 0.71986,0.32814 4.15361,1.82121 6.84276,5.91987 6.86056,10.45519 6e-5,6.33193 -5.13299,11.46488 -11.46492,11.46493 -6.33201,5e-5 -11.46498,-5.13294 -11.46493,-11.46493 0.0183,-4.39412 2.54633,-8.39126 6.50865,-10.29086 0.35438,-0.18462 0.71813,-0.35047 1.08984,-0.49712 0.29128,-0.0906 0.58613,-0.17008 0.88368,-0.23718 0.33573,-0.10509 0.67612,-0.19444 1.02008,-0.2682 0.64817,-0.11346 1.30466,-0.17079 1.96268,-0.17159 z" />
      <path
         id="path13360"
         style="fill:#ffffff;fill-opacity:1;stroke-width:0.305338;stroke-linecap:round;stroke-linejoin:round;paint-order:stroke fill markers"
         d="m -418.16689,-512.44715 c -25.10917,-1e-5 -49.18992,9.97457 -66.94479,27.72943 -17.75487,17.75486 -27.72943,41.83562 -27.72943,66.94479 0,25.10917 9.97456,49.18993 27.72943,66.94479 17.75487,17.75486 41.83562,27.72944 66.94479,27.72944 25.10917,0 49.18994,-9.97457 66.9448,-27.72943 17.75485,-17.75487 27.72943,-41.83563 27.72943,-66.9448 0,-25.10917 -9.97458,-49.18993 -27.72943,-66.9448 -17.75486,-17.75486 -41.83563,-27.72943 -66.9448,-27.72942 z m 0,12.05949 c 21.91079,10e-6 42.92417,8.70403 58.41743,24.1973 15.49327,15.49327 24.1973,36.50664 24.19732,58.41743 -2e-5,21.91079 -8.70405,42.92417 -24.19732,58.41743 -15.49326,15.49327 -36.50664,24.1973 -58.41743,24.1973 -21.91078,-10e-6 -42.92416,-8.70404 -58.41743,-24.1973 -15.49325,-15.49327 -24.19729,-36.50664 -24.1973,-58.41743 10e-6,-21.91079 8.70405,-42.92416 24.1973,-58.41742 15.49327,-15.49327 36.50665,-24.1973 58.41743,-24.19731 z"
         sodipodi:nodetypes="ssssssssssssssssss" />
    </g>
  </g>
</svg>
