<?xml version="1.0" encoding="UTF-8" standalone="no"?>
<!-- Created with Inkscape (http://www.inkscape.org/) -->

<svg
   width="300"
   height="300"
   viewBox="0 0 79.374999 79.375"
   version="1.1"
   id="svg5"
   inkscape:version="1.1 (1:1.1+202105261517+ce6663b3b7)"
   sodipodi:docname="product.svg"
   xmlns:inkscape="http://www.inkscape.org/namespaces/inkscape"
   xmlns:sodipodi="http://sodipodi.sourceforge.net/DTD/sodipodi-0.dtd"
   xmlns="http://www.w3.org/2000/svg"
   xmlns:svg="http://www.w3.org/2000/svg">
  <sodipodi:namedview
     id="namedview7"
     pagecolor="#505050"
     bordercolor="#eeeeee"
     borderopacity="1"
     inkscape:pageshadow="0"
     inkscape:pageopacity="0"
     inkscape:pagecheckerboard="0"
     inkscape:document-units="px"
     showgrid="false"
     inkscape:zoom="1.4140625"
     inkscape:cx="136.1326"
     inkscape:cy="220.28729"
     inkscape:window-width="1366"
     inkscape:window-height="715"
     inkscape:window-x="0"
     inkscape:window-y="25"
     inkscape:window-maximized="1"
     inkscape:current-layer="layer1"
     inkscape:snap-global="true"
     fit-margin-top="0"
     fit-margin-left="0"
     fit-margin-right="0"
     fit-margin-bottom="0" />
  <defs
     id="defs2">
    <symbol
       id="ToiletsMen">
      <title
         id="title8479">Toilets - Men</title>
      <g
         style="stroke:none"
         id="g8485">
        <circle
           cx="36"
           cy="9"
           r="5"
           id="circle8481" />
        <path
           d="m 24,22 v 15.5 a 2.25,2.25 0 0 0 4.5,0 V 23 h 1 v 39.5 a 3,3 0 0 0 6,0 V 40 h 1 v 22.5 a 3,3 0 0 0 6,0 V 23 h 1 v 14.5 a 2.25,2.25 0 0 0 4.5,0 V 22 A 7,7 0 0 0 41,15 H 31 a 7,7 0 0 0 -7,7 z"
           id="path8483" />
      </g>
    </symbol>
    <symbol
       id="Shops">
      <title
         id="title9001">Shops</title>
      <g
         style="stroke:none"
         id="g9009">
        <!-- Pipe -->
        <path
           d="m 19.5,11 v 5 c 0,1.1 1,1.5 2,1 l 13.9,-6.4 c 0.4,-0.2 0.9,0 1.1,0.4 l 1.1,2.3 c 0.2,0.4 0,0.9 -0.4,1.1 L 18,23.1 c -3.5,1.6 -7,-0.6 -7,-3.6 V 11 Z"
           id="path9003" />
        <!-- Book -->
        <path
           d="M 27.5,22 14,28 c -2.2,1 -3,2.4 -3,4.5 v 21 A 5.5,5.5 0 0 0 16.5,59 H 35 v -3.5 a 2,2 0 0 1 0,-4 V 26 h -7.5 z m 0.5,8 h 3 V 48 H 20 l 8,-3.5 z M 16.5,52 h 13 a 2,2 0 0 0 0,3 h -13 a 1.5,1.5 0 0 1 0,-3 z"
           id="path9005" />
        <!-- Present -->
        <path
           d="M 49,10.5 45,11.8 46.9,18 42.6,14.6 40,18 45,22 H 40 V 59 H 62 V 22 H 57 L 62,18 59.4,14.6 55.1,18 57,11.8 53,10.5 51,17 Z M 44,26 h 5 v 6 h -5 z m 9,0 h 5 v 6 h -5 z m -9,10 h 5 v 19 h -5 z m 9,0 h 5 v 19 h -5 z"
           id="path9007" />
      </g>
    </symbol>
    <symbol
       id="BaggageClaim_Inv">
      <title
         id="title2185">Baggage Claim</title>
      <rect
         x="0.5"
         y="0.5"
         width="71"
         height="71"
         ry="6"
         style="stroke:#ffffff"
         id="rect2187" />
      <path
         d="m 31,14 a 3,3 0 0 0 -3,3 v 5 H 22 V 58 H 51 V 22 h -7 v -5 a 3,3 0 0 0 -3,-3 z m 0,3 h 10 v 5 H 31 Z m -16,5 a 5,5 0 0 0 -5,5 v 26 a 5,5 0 0 0 5,5 h 4 V 22 Z m 39,0 v 36 h 3 a 5,5 0 0 0 5,-5 V 27 a 5,5 0 0 0 -5,-5 z"
         style="fill:#ffffff;stroke:none"
         id="path2189" />
    </symbol>
  </defs>
  <g
     inkscape:label="Layer 1"
     inkscape:groupmode="layer"
     id="layer1"
     transform="translate(-43.037755,435.21197)">
    <g
       id="g14843"
       transform="matrix(0.41920068,0,0,0.41920068,166.42696,-220.39378)">
      <path
         id="path14511-3"
         style="fill:#ffffff;fill-opacity:1;stroke-width:0.305338;stroke-linecap:round;stroke-linejoin:round;paint-order:stroke fill markers"
         d="m -199.66978,-512.44715 c -25.10917,-1e-5 -49.18992,9.97457 -66.94479,27.72943 -17.75487,17.75486 -27.72943,41.83562 -27.72943,66.94479 0,25.10917 9.97456,49.18993 27.72943,66.94479 17.75487,17.75486 41.83562,27.72944 66.94479,27.72944 25.10918,0 49.18995,-9.97457 66.9448,-27.72943 17.75486,-17.75487 27.72943,-41.83563 27.72943,-66.9448 0,-25.10917 -9.97457,-49.18993 -27.72943,-66.9448 -17.75485,-17.75486 -41.83562,-27.72943 -66.9448,-27.72942 z m 0,12.05949 c 21.91079,10e-6 42.92418,8.70403 58.41742,24.1973 15.49328,15.49327 24.19731,36.50664 24.19733,58.41743 -2e-5,21.91079 -8.70405,42.92417 -24.19733,58.41743 -15.49324,15.49327 -36.50663,24.1973 -58.41742,24.1973 -21.91077,-10e-6 -42.92416,-8.70404 -58.41743,-24.1973 -15.49325,-15.49327 -24.19728,-36.50664 -24.1973,-58.41743 2e-5,-21.91079 8.70405,-42.92416 24.1973,-58.41742 15.49327,-15.49327 36.50665,-24.1973 58.41743,-24.19731 z"
         sodipodi:nodetypes="ssssssssssssssssss" />
      <path
         id="path3789"
         style="fill:#ffffff;stroke:none;stroke-width:2.069"
         d="m -217.77336,-452.36138 c -5.999,1.6e-4 -10.86246,4.86316 -10.8626,10.86216 v 18.10415 h -8.27596 c -5.7134,0 -10.34518,4.63132 -10.34518,10.34474 v 44.03804 c 12.98121,11.83465 29.94327,18.43775 47.58746,18.43777 17.644,0 34.60588,-6.60294 47.58701,-18.43734 v -44.03847 c 0,-5.71342 -4.63133,-10.34474 -10.34472,-10.34474 h -6.2072 -2.06833 v -18.10415 c -1.5e-4,-5.999 -4.8636,-10.862 -10.86259,-10.86216 z m 0,10.86216 h 36.20788 v 18.10415 h -36.20788 z m 15.20382,29.18855 2.89946,9.42304 2.8999,-9.42304 5.79848,1.88497 -2.75409,8.98779 6.23282,-4.92935 3.76948,4.92935 -7.24821,5.79847 h 7.24821 v 35.2451 h -31.89229 v -35.2451 h 7.24776 l -7.24776,-5.79847 3.76947,-4.92935 6.23282,4.92935 -2.75453,-8.98779 z m -7.24776,22.46929 v 8.6988 h 7.24776 v -8.6988 z m 13.04712,0 v 8.6988 h 7.24821 v -8.6988 z m -13.04712,14.49729 v 9.15083 h 7.24776 v -9.15083 z m 13.04712,0 v 9.15083 h 7.24821 v -9.15083 z" />
    </g>
  </g>
</svg>
