<?xml version="1.0" encoding="UTF-8" standalone="no"?>
<!-- Created with Inkscape (http://www.inkscape.org/) -->

<svg
   width="300"
   height="300"
   viewBox="0 0 79.374999 79.375"
   version="1.1"
   id="svg5"
   inkscape:version="1.1 (1:1.1+202105261517+ce6663b3b7)"
   sodipodi:docname="profile.svg"
   xmlns:inkscape="http://www.inkscape.org/namespaces/inkscape"
   xmlns:sodipodi="http://sodipodi.sourceforge.net/DTD/sodipodi-0.dtd"
   xmlns="http://www.w3.org/2000/svg"
   xmlns:svg="http://www.w3.org/2000/svg">
  <sodipodi:namedview
     id="namedview7"
     pagecolor="#505050"
     bordercolor="#eeeeee"
     borderopacity="1"
     inkscape:pageshadow="0"
     inkscape:pageopacity="0"
     inkscape:pagecheckerboard="0"
     inkscape:document-units="px"
     showgrid="false"
     inkscape:zoom="0.2499733"
     inkscape:cx="-550.05876"
     inkscape:cy="286.03055"
     inkscape:window-width="1366"
     inkscape:window-height="715"
     inkscape:window-x="0"
     inkscape:window-y="25"
     inkscape:window-maximized="1"
     inkscape:current-layer="layer1"
     inkscape:snap-global="false"
     fit-margin-top="0"
     fit-margin-left="0"
     fit-margin-right="0"
     fit-margin-bottom="0" />
  <defs
     id="defs2">
    <symbol
       id="ToiletsMen">
      <title
         id="title8479">Toilets - Men</title>
      <g
         style="stroke:none"
         id="g8485">
        <circle
           cx="36"
           cy="9"
           r="5"
           id="circle8481" />
        <path
           d="m 24,22 v 15.5 a 2.25,2.25 0 0 0 4.5,0 V 23 h 1 v 39.5 a 3,3 0 0 0 6,0 V 40 h 1 v 22.5 a 3,3 0 0 0 6,0 V 23 h 1 v 14.5 a 2.25,2.25 0 0 0 4.5,0 V 22 A 7,7 0 0 0 41,15 H 31 a 7,7 0 0 0 -7,7 z"
           id="path8483" />
      </g>
    </symbol>
    <symbol
       id="Shops">
      <title
         id="title9001">Shops</title>
      <g
         style="stroke:none"
         id="g9009">
        <!-- Pipe -->
        <path
           d="m 19.5,11 v 5 c 0,1.1 1,1.5 2,1 l 13.9,-6.4 c 0.4,-0.2 0.9,0 1.1,0.4 l 1.1,2.3 c 0.2,0.4 0,0.9 -0.4,1.1 L 18,23.1 c -3.5,1.6 -7,-0.6 -7,-3.6 V 11 Z"
           id="path9003" />
        <!-- Book -->
        <path
           d="M 27.5,22 14,28 c -2.2,1 -3,2.4 -3,4.5 v 21 A 5.5,5.5 0 0 0 16.5,59 H 35 v -3.5 a 2,2 0 0 1 0,-4 V 26 h -7.5 z m 0.5,8 h 3 V 48 H 20 l 8,-3.5 z M 16.5,52 h 13 a 2,2 0 0 0 0,3 h -13 a 1.5,1.5 0 0 1 0,-3 z"
           id="path9005" />
        <!-- Present -->
        <path
           d="M 49,10.5 45,11.8 46.9,18 42.6,14.6 40,18 45,22 H 40 V 59 H 62 V 22 H 57 L 62,18 59.4,14.6 55.1,18 57,11.8 53,10.5 51,17 Z M 44,26 h 5 v 6 h -5 z m 9,0 h 5 v 6 h -5 z m -9,10 h 5 v 19 h -5 z m 9,0 h 5 v 19 h -5 z"
           id="path9007" />
      </g>
    </symbol>
  </defs>
  <g
     inkscape:label="Layer 1"
     inkscape:groupmode="layer"
     id="layer1"
     transform="translate(101.89713,512.44714)">
    <g
       id="g15062"
       transform="matrix(0.41920068,0,0,0.41920068,-59.181783,-297.62895)">
      <path
         id="circle10824"
         d="m 21.630547,-421.89951 a 28.886709,28.886709 0 0 1 -28.8867106,28.88671 28.886709,28.886709 0 0 1 -28.8867104,-28.88671 28.886709,28.886709 0 0 1 28.8867104,-28.88671 28.886709,28.886709 0 0 1 28.8867106,28.88671 z"
         style="fill:#ffffff;stroke:none;stroke-width:5.77727" />
      <path
         style="fill:#ffffff;stroke:none;stroke-width:5.77727"
         d="m 20.723943,-387.50416 c -1.30246,-0.003 -2.605532,0.0154 -3.907161,0.003 -17.72268784,0.003 -35.445722,-0.008 -53.168259,0.005 -0.662445,0.0192 -1.324964,0.0386 -1.987409,0.0578 -1.586502,0.11197 -3.170333,0.27471 -4.736848,0.55269 -1.873927,0.33264 -3.72614,0.78497 -5.535694,1.3759 -1.544023,0.48794 -3.0447,1.10177 -4.523347,1.76015 -1.794402,0.85025 -3.546993,1.79361 -5.2017,2.89377 -1.488669,0.95472 -2.890821,2.03906 -4.24377,3.17623 -0.136972,0.11997 -0.270644,0.24382 -0.406537,0.36508 3.678449,4.57917 7.918734,8.70711 12.603276,12.25063 2.175874,1.64746 4.463008,3.17953 6.812864,4.56584 2.134611,1.25943 4.334576,2.40756 6.588214,3.43894 1.489864,0.68134 3.021654,1.31971 4.54952,1.89464 3.091848,1.16504 6.255408,2.11171 9.478112,2.83911 2.380536,0.53632 4.80234,0.9544 7.230814,1.24426 2.137508,0.25622 4.305811,0.4167 6.458668,0.47729 2.9796816,0.0852 5.9492135,-0.0154 8.91401968,-0.30135 2.96826822,-0.28546 5.94668622,-0.7634 8.85959542,-1.4202 3.1704959,-0.71563 6.2835829,-1.64342 9.3278389,-2.78262 0.364681,-0.13604 0.737705,-0.2796 1.097862,-0.4208 1.00461,-0.3953 2.000801,-0.81222 2.986536,-1.25256 1.000173,-0.44561 2.007639,-0.92393 2.98551,-1.41528 1.235751,-0.6216 2.464907,-1.28434 3.667226,-1.98014 2.362366,-1.36451 4.66246,-2.87676 6.852765,-4.50391 4.886417,-3.62762 9.299282,-7.89517 13.109597,-12.63877 -1.101335,-0.96825 -2.24515,-1.88782 -3.4501,-2.72458 -1.369349,-0.98753 -2.824995,-1.84804 -4.302061,-2.66342 -1.748679,-0.90911 -3.543848,-1.73452 -5.405883,-2.38489 -1.676304,-0.62053 -3.405964,-1.08876 -5.1478,-1.48498 -1.848988,-0.38085 -3.717652,-0.67592 -5.602553,-0.79988 -1.298981,-0.0996 -2.600824,-0.12454 -3.903296,-0.12774 z"
         id="path10826" />
      <path
         id="path11438"
         style="fill:#ffffff;fill-opacity:1;stroke-width:0.305338;stroke-linecap:round;stroke-linejoin:round;paint-order:stroke fill markers"
         d="m -7.222911,-512.44715 c -25.109166,-1e-5 -49.189923,9.97457 -66.94479,27.72943 -17.754866,17.75486 -27.729429,41.83562 -27.729429,66.94479 0,25.10917 9.974563,49.18993 27.729429,66.94479 17.754867,17.75486 41.835624,27.72944 66.94479,27.72944 25.109166,0 49.189938,-9.97457 66.944805,-27.72943 17.754851,-17.75487 27.729426,-41.83563 27.729426,-66.9448 0,-25.10917 -9.974575,-49.18993 -27.729426,-66.9448 -17.754867,-17.75486 -41.835639,-27.72943 -66.944805,-27.72942 z m 0,12.05949 c 21.910794,10e-6 42.924169,8.70403 58.417427,24.1973 15.493272,15.49327 24.197304,36.50664 24.197319,58.41743 -1.5e-5,21.91079 -8.704047,42.92417 -24.197319,58.41743 -15.493258,15.49327 -36.506633,24.1973 -58.417427,24.1973 -21.910779,-10e-6 -42.924154,-8.70404 -58.417427,-24.1973 -15.493257,-15.49327 -24.197289,-36.50664 -24.197304,-58.41743 1.5e-5,-21.91079 8.704047,-42.92416 24.197304,-58.41742 15.493273,-15.49327 36.506648,-24.1973 58.417427,-24.19731 z"
         sodipodi:nodetypes="ssssssssssssssssss" />
    </g>
  </g>
</svg>
