<?xml version="1.0" encoding="UTF-8" standalone="no"?>
<!-- Created with Inkscape (http://www.inkscape.org/) -->

<svg
   width="500"
   height="500"
   viewBox="0 0 132.29165 132.29167"
   version="1.1"
   id="svg5"
   inkscape:version="1.1 (1:1.1+202105261517+ce6663b3b7)"
   sodipodi:docname="sun.svg"
   xmlns:inkscape="http://www.inkscape.org/namespaces/inkscape"
   xmlns:sodipodi="http://sodipodi.sourceforge.net/DTD/sodipodi-0.dtd"
   xmlns="http://www.w3.org/2000/svg"
   xmlns:svg="http://www.w3.org/2000/svg">
  <sodipodi:namedview
     id="namedview7"
     pagecolor="#505050"
     bordercolor="#eeeeee"
     borderopacity="1"
     inkscape:pageshadow="0"
     inkscape:pageopacity="0"
     inkscape:pagecheckerboard="0"
     inkscape:document-units="px"
     showgrid="false"
     inkscape:zoom="0.35351563"
     inkscape:cx="100.41989"
     inkscape:cy="340.86187"
     inkscape:window-width="1366"
     inkscape:window-height="715"
     inkscape:window-x="0"
     inkscape:window-y="25"
     inkscape:window-maximized="1"
     inkscape:current-layer="layer1"
     fit-margin-top="0"
     fit-margin-left="0"
     fit-margin-right="0"
     fit-margin-bottom="0"
     inkscape:snap-global="false"
     showguides="false" />
  <defs
     id="defs2" />
  <g
     inkscape:label="Layer 1"
     inkscape:groupmode="layer"
     id="layer1"
     transform="translate(-231.51079,-103.1705)">
    <g
       id="g1555"
       transform="matrix(0.69444445,0,0,0.69444445,70.739408,31.52432)">
      <path
         id="rect994"
         style="fill:none;fill-opacity:0.98923;stroke-width:2.77663;stroke-linecap:round;stroke-linejoin:round;paint-order:stroke fill markers"
         d="M 231.51079,103.1705 H 422.01078 V 293.67049 H 231.51079 Z" />
      <g
         id="g850"
         transform="matrix(2.4000002,0,0,2.4000002,-324.11513,-144.4387)">
        <path
           style="fill:#ffffff;fill-opacity:0.995046;stroke-width:3.05355;stroke-linecap:round;stroke-linejoin:round;paint-order:stroke fill markers"
           d="m 267.39012,168.78637 3.80661,10.34547 3.80662,-10.34547 a 25.742194,25.742194 0 0 1 -3.80662,0.28396 25.742194,25.742194 0 0 1 -3.80661,-0.28403 z"
           id="path3337" />
        <path
           style="fill:#ffffff;fill-opacity:0.995046;stroke-width:3.05355;stroke-linecap:round;stroke-linejoin:round;paint-order:stroke fill markers"
           d="m 289.47033,161.43556 a 25.742194,25.742194 0 0 1 -6.17764,4.59696 l 9.22479,6.17139 z"
           id="path3335" />
        <path
           style="fill:#ffffff;fill-opacity:0.995046;stroke-width:3.05355;stroke-linecap:round;stroke-linejoin:round;paint-order:stroke fill markers"
           d="m 252.92313,161.43256 -3.04715,10.77151 9.22479,-6.17455 a 25.742194,25.742194 0 0 1 -6.17764,-4.59696 z"
           id="path3333" />
        <path
           style="fill:#ffffff;fill-opacity:0.995046;stroke-width:3.05355;stroke-linecap:round;stroke-linejoin:round;paint-order:stroke fill markers"
           d="m 296.67296,146.96873 a 25.742194,25.742194 0 0 1 -2.28459,7.53296 l 11.30561,-0.4353 z"
           id="path3331" />
        <path
           style="fill:#ffffff;fill-opacity:0.995046;stroke-width:3.05355;stroke-linecap:round;stroke-linejoin:round;paint-order:stroke fill markers"
           d="m 245.72051,146.96573 -9.01794,7.09766 11.30561,0.43839 a 25.742194,25.742194 0 0 1 -2.28767,-7.53605 z"
           id="path3329" />
        <path
           style="fill:#ffffff;fill-opacity:0.995046;stroke-width:3.05355;stroke-linecap:round;stroke-linejoin:round;paint-order:stroke fill markers"
           d="m 293.88206,131.19282 a 25.742194,25.742194 0 0 1 2.65197,7.66572 l 9.15995,-7.21189 z"
           id="path3327" />
        <path
           style="fill:#ffffff;fill-opacity:0.995046;stroke-width:3.05355;stroke-linecap:round;stroke-linejoin:round;paint-order:stroke fill markers"
           d="m 248.51449,131.19282 -11.81192,0.45383 9.15995,7.21189 a 25.742194,25.742194 0 0 1 2.65197,-7.66572 z"
           id="path3325" />
        <path
           style="fill:#ffffff;fill-opacity:0.995046;stroke-width:3.05355;stroke-linecap:round;stroke-linejoin:round;paint-order:stroke fill markers"
           d="m 292.51748,113.50889 -10.00896,6.6994 a 25.742194,25.742194 0 0 1 6.75497,4.8038 z"
           id="path3323" />
        <path
           style="fill:#ffffff;fill-opacity:0.995046;stroke-width:3.05355;stroke-linecap:round;stroke-linejoin:round;paint-order:stroke fill markers"
           d="m 249.87598,113.50889 3.25708,11.5032 a 25.742194,25.742194 0 0 1 6.75497,-4.8038 z"
           id="path3321" />
        <path
           style="fill:#ffffff;fill-opacity:0.995046;stroke-width:3.05355;stroke-linecap:round;stroke-linejoin:round;paint-order:stroke fill markers"
           d="m 271.19673,106.58413 -4.18017,11.35501 a 25.742194,25.742194 0 0 1 4.18017,-0.35504 25.742194,25.742194 0 0 1 4.18018,0.35504 z"
           id="path1728" />
        <path
           style="fill:#ffffff;fill-opacity:0.98923;stroke-width:1.8936;stroke-linecap:round;stroke-linejoin:round;paint-order:stroke fill markers"
           d="M 291.07695,143.3275 A 19.878944,19.878944 0 0 1 271.19797,163.20641 19.878944,19.878944 0 0 1 251.319,143.3275 19.878944,19.878944 0 0 1 271.19797,123.44858 19.878944,19.878944 0 0 1 291.07695,143.3275 Z"
           id="path2029" />
      </g>
    </g>
  </g>
</svg>
