<?xml version="1.0" encoding="UTF-8" standalone="no"?>
<!-- Created with Inkscape (http://www.inkscape.org/) -->

<svg
   width="54.370224"
   height="54.370224"
   viewBox="0 0 14.385454 14.385455"
   version="1.1"
   id="svg5"
   inkscape:version="1.1 (1:1.1+202105261517+ce6663b3b7)"
   sodipodi:docname="matahari.svg"
   xmlns:inkscape="http://www.inkscape.org/namespaces/inkscape"
   xmlns:sodipodi="http://sodipodi.sourceforge.net/DTD/sodipodi-0.dtd"
   xmlns="http://www.w3.org/2000/svg"
   xmlns:svg="http://www.w3.org/2000/svg">
  <sodipodi:namedview
     id="namedview7"
     pagecolor="#505050"
     bordercolor="#eeeeee"
     borderopacity="1"
     inkscape:pageshadow="0"
     inkscape:pageopacity="0"
     inkscape:pagecheckerboard="0"
     inkscape:document-units="px"
     showgrid="false"
     inkscape:zoom="7.9991456"
     inkscape:cx="26.190297"
     inkscape:cy="27.940484"
     inkscape:window-width="1366"
     inkscape:window-height="715"
     inkscape:window-x="0"
     inkscape:window-y="25"
     inkscape:window-maximized="1"
     inkscape:current-layer="layer1"
     fit-margin-top="0"
     fit-margin-left="0"
     fit-margin-right="0"
     fit-margin-bottom="0"
     inkscape:snap-global="false"
     showguides="false" />
  <defs
     id="defs2" />
  <g
     inkscape:label="Layer 1"
     inkscape:groupmode="layer"
     id="layer1"
     transform="translate(-228.47098,-102.42157)">
    <g
       id="g6521"
       transform="matrix(0.80470455,0.80470455,-0.80470455,0.80470455,134.16359,-170.43945)">
      <path
         style="color:#000000;fill:#ffffff;fill-opacity:1;stroke-width:1.45057;-inkscape-stroke:none"
         d="m 236.88394,104.40263 -1e-5,13.21875 h -0.55836 v -13.21875 z"
         id="path1804" />
      <g
         id="g6505"
         transform="translate(-0.1934265)">
        <g
           id="g6411"
           transform="translate(1.1095759)">
          <path
             style="color:#000000;fill:#ffffff;fill-opacity:1;stroke-width:0.584954;stroke-linecap:round;stroke-linejoin:round;-inkscape-stroke:none;paint-order:stroke fill markers"
             d="m 239.07122,114.28626 a 4.2202258,4.2202258 0 0 1 -0.98805,0.57103 l 1.16116,0.86919 z"
             id="path1852" />
          <path
             style="color:#000000;fill:#ffffff;fill-opacity:1;stroke-width:0.584954;stroke-linecap:round;stroke-linejoin:round;-inkscape-stroke:none;paint-order:stroke fill markers"
             d="m 240.39362,112.54684 a 4.2202258,4.2202258 0 0 1 -0.57102,0.98857 l 1.4397,0.17208 z"
             id="path1848" />
          <path
             style="color:#000000;fill:#ffffff;fill-opacity:1;stroke-width:0.584954;stroke-linecap:round;stroke-linejoin:round;-inkscape-stroke:none;paint-order:stroke fill markers"
             d="m 240.6675,110.37952 a 4.2202258,4.2202258 0 0 1 0.0393,0.57103 4.2202258,4.2202258 0 0 1 -0.0393,0.57051 l 1.33325,-0.57103 z"
             id="path1844" />
          <path
             style="color:#000000;fill:#ffffff;fill-opacity:1;stroke-width:0.584954;stroke-linecap:round;stroke-linejoin:round;-inkscape-stroke:none;paint-order:stroke fill markers"
             d="m 241.2623,108.19258 -1.44022,0.1726 a 4.2202258,4.2202258 0 0 1 0.57154,0.98908 z"
             id="path1840" />
          <path
             style="color:#000000;fill:#ffffff;fill-opacity:1;stroke-width:0.584954;stroke-linecap:round;stroke-linejoin:round;-inkscape-stroke:none;paint-order:stroke fill markers"
             d="m 239.24433,106.17462 -1.16116,0.86919 a 4.2202258,4.2202258 0 0 1 0.98805,0.57103 z"
             id="path1836" />
          <path
             style="color:#000000;fill:#ffffff;fill-opacity:1;stroke-width:0.864523;stroke-linecap:round;stroke-linejoin:round;-inkscape-stroke:none;paint-order:stroke fill markers"
             d="m 237.23412,107.6505 v 6.6001 a 3.3838377,3.3838377 0 0 0 2.63653,-3.30005 3.3838377,3.3838377 0 0 0 -2.63653,-3.30005 z"
             id="path2438" />
        </g>
        <g
           id="g6403">
          <path
             id="path3381"
             style="fill:#ffffff;stroke-width:0.333839;stroke-linecap:round;stroke-linejoin:round;paint-order:stroke fill markers"
             d="m 231.24623,109.10143 a 2.5953632,2.5953632 0 0 0 0,3.67046 2.5953632,2.5953632 0 0 0 3.67047,0 2.5953632,2.5953632 0 0 0 0.64224,-1.06918 2.295298,2.295298 0 0 1 -3.21586,-0.0277 2.295298,2.295298 0 0 1 -0.0258,-3.21863 2.5953632,2.5953632 0 0 0 -1.07104,0.64502 z" />
          <path
             id="path5187"
             style="fill:#ffffff;fill-opacity:1;stroke-width:0.185224;stroke-linecap:round;stroke-linejoin:round;paint-order:stroke fill markers"
             d="m 233.19362,110.24409 0.1862,0.52797 -0.33147,0.38931 0.55969,-0.0139 0.2678,0.43556 0.1597,-0.5366 0.49699,-0.12009 -0.46099,-0.3177 0.0394,-0.50979 -0.44462,0.34024 z" />
          <path
             id="path6379"
             style="fill:#ffffff;fill-opacity:1;stroke-width:0.136566;stroke-linecap:round;stroke-linejoin:round;paint-order:stroke fill markers"
             d="m 234.62825,108.91021 0.13729,0.38927 -0.24437,0.28708 0.41266,-0.0103 0.19743,0.32116 0.11774,-0.39563 0.36644,-0.0885 -0.33988,-0.23424 0.029,-0.37588 -0.32781,0.25087 z" />
          <path
             id="path6381"
             style="fill:#ffffff;fill-opacity:1;stroke-width:0.136566;stroke-linecap:round;stroke-linejoin:round;paint-order:stroke fill markers"
             d="m 233.18144,108.12871 0.13729,0.38928 -0.24437,0.28708 0.41266,-0.0103 0.19743,0.32117 0.11774,-0.39563 0.36644,-0.0885 -0.33989,-0.23425 0.029,-0.37587 -0.32781,0.25087 z" />
        </g>
      </g>
    </g>
  </g>
</svg>
